<?xml version="1.0" encoding="UTF-8"?>
<svg id="Layer_1" xmlns="http://www.w3.org/2000/svg" version="1.1" viewBox="0 0 412.83 401.18">
  <!-- Generator: Adobe Illustrator 30.0.0, SVG Export Plug-In . SVG Version: 2.1.1 Build 123)  -->
  <path d="M225.41,140.14l95.83-95.38c4.66-2.14,12.31,5.94,15.83,9.13,4.19,3.81,16.91,16.58,18.97,21.07,1.03,2.24.69,3.6-.65,5.6l-92.91,92.89-1.24,2.51h135.39c.27,0,2.51,2.37,2.74,3.09,1.73,5.55,1.73,37.43,0,42.97-.23.73-2.47,3.09-2.74,3.09h-133.31c-.38,0-1.07.72-1.67.03v1.65l94.64,95.36c.41,1.07.7,1.78.4,2.97-.82,3.31-16.16,18.93-19.63,22.07-3.9,3.53-11.3,11.67-16.31,8.78l-67.87-67.92c-25.9-30.61,4.97-88.82-22.87-117.11-27.5-27.94-86.51,1.89-116.26-22.04L44.72,79.61c-.47-.71-.89-1.51-.88-2.38,0-2.18,7.91-11.14,9.92-13.35,3.29-3.64,18.01-18.1,21.66-19.21,1.18-.36,2.21-.56,3.38,0l96.62,95.47V5.58c0-1.37,3.2-4.05,4.76-4.4,2.64-.59,10.69-.93,13.95-1.05,7.28-.27,18.73-.17,25.82.92,1.87.29,5.47,2.8,5.47,4.53v134.56h-.01Z"/>
  <path d="M175.42,260.95l-95.35,95.02c-5,2.9-12.41-5.25-16.31-8.78-3.68-3.34-18.48-18.39-19.66-22.07-.37-1.15-.36-2.07.28-3.12l94.8-95.21v-1.65c-.61.69-1.3-.03-1.68-.03H4.2c-2.58,0-3.57-8.28-3.74-10.42-.61-7.65-.59-19.84-.04-27.52.26-3.73.43-10.4,4.64-11.19l198.31-.06c12.4,1.83,21,11.29,22.08,23.75l-.21,195.65c-.41,1.85-2.13,3.82-3.94,4.39-1.91.6-9.49,1.1-12.09,1.24-8.14.43-20.33.32-28.32-.91-1.41-.22-5.46-2.72-5.46-3.7v-135.39h0Z"/>
  <path d="M374.28,31.33c0-10.94,8.34-19.18,19.19-19.18s19.36,8.25,19.36,19.18-8.34,19.36-19.36,19.36-19.19-8.25-19.19-19.36h0ZM393.47,47.13c8.94,0,15.8-6.77,15.8-15.8s-6.86-15.63-15.8-15.63-15.72,6.69-15.72,15.63,6.85,15.8,15.72,15.8ZM386.86,20.48h7.21c4.25,0,7.29,2.08,7.29,6.51,0,3.74-2.34,5.99-6.16,6.34l6.94,9.03h-4.33l-7.21-9.55v9.55h-3.74v-21.87h0ZM393.73,30.28c2.43,0,3.99-1.13,3.99-3.21s-1.56-3.21-3.99-3.21h-3.13v6.42h3.13Z"/>
</svg>