<?xml version="1.0" encoding="UTF-8"?>
<svg id="Layer_1" xmlns="http://www.w3.org/2000/svg" version="1.1" viewBox="0 0 1786.64 401.18">
  <!-- Generator: Adobe Illustrator 30.0.0, SVG Export Plug-In . SVG Version: 2.1.1 Build 123)  -->
  <defs>
    <style>
      .st0 {
        fill: #fff;
      }
    </style>
  </defs>
  <g>
    <path class="st0" d="M225.4,140.14l95.83-95.38c4.66-2.14,12.31,5.94,15.83,9.13,4.19,3.81,16.91,16.58,18.97,21.07,1.03,2.24.69,3.6-.65,5.6l-92.91,92.89-1.24,2.51h135.39c.27,0,2.51,2.37,2.74,3.09,1.73,5.55,1.73,37.43,0,42.97-.23.73-2.47,3.09-2.74,3.09h-133.31c-.38,0-1.07.72-1.67.03v1.65s94.64,95.36,94.64,95.36c.41,1.07.7,1.78.4,2.97-.82,3.31-16.16,18.93-19.63,22.07-3.9,3.53-11.3,11.67-16.31,8.78l-67.87-67.92c-25.9-30.61,4.97-88.82-22.87-117.11-27.5-27.94-86.51,1.89-116.26-22.04L44.71,79.61c-.47-.71-.89-1.51-.88-2.38,0-2.18,7.91-11.14,9.92-13.35,3.29-3.64,18.01-18.1,21.66-19.21,1.18-.36,2.21-.56,3.38,0l96.62,95.47V5.58c0-1.37,3.2-4.05,4.76-4.4,2.64-.59,10.69-.93,13.95-1.05,7.28-.27,18.73-.17,25.82.92,1.87.29,5.47,2.8,5.47,4.53v134.56Z"/>
    <path class="st0" d="M175.41,260.95l-95.35,95.02c-5,2.9-12.41-5.25-16.31-8.78-3.68-3.34-18.48-18.39-19.66-22.07-.37-1.15-.36-2.07.28-3.12l94.8-95.21v-1.65c-.61.69-1.3-.03-1.68-.03H4.19c-2.58,0-3.57-8.28-3.74-10.42-.61-7.65-.59-19.84-.04-27.52.26-3.73.43-10.4,4.64-11.19l198.31-.06c12.4,1.83,21,11.29,22.08,23.75l-.21,195.65c-.41,1.85-2.13,3.82-3.94,4.39-1.91.6-9.49,1.1-12.09,1.24-8.14.43-20.33.32-28.32-.91-1.41-.22-5.46-2.72-5.46-3.7v-135.39Z"/>
    <path class="st0" d="M374.27,31.33c0-10.94,8.34-19.18,19.19-19.18s19.36,8.25,19.36,19.18-8.34,19.36-19.36,19.36-19.19-8.25-19.19-19.36ZM393.46,47.13c8.94,0,15.8-6.77,15.8-15.8s-6.86-15.63-15.8-15.63-15.72,6.69-15.72,15.63,6.85,15.8,15.72,15.8ZM386.85,20.48h7.21c4.25,0,7.29,2.08,7.29,6.51,0,3.74-2.34,5.99-6.16,6.34l6.94,9.03h-4.33l-7.21-9.55v9.55h-3.74v-21.87ZM393.72,30.28c2.43,0,3.99-1.13,3.99-3.21s-1.56-3.21-3.99-3.21h-3.13v6.42h3.13Z"/>
  </g>
  <g>
    <path class="st0" d="M512.91,280.29c0-14.61,7.93-25.46,25.04-25.46,41.73.83,30.47,76.79,101,76.79,28.8,0,48.41-16.69,48.41-42.15,0-88.89-169.02-27.96-169.02-151.5,0-50.08,41.73-86.81,110.6-86.81s116.02,37.56,115.6,72.2c0,15.86-8.76,25.88-26.71,25.88-45.07,0-29.21-74.29-90.15-74.29-31.72,0-47.16,19.2-47.16,42.99,0,89.73,168.19,32.14,168.19,152.33,0,54.25-52.17,85.14-112.26,85.14-79.71,0-123.53-41.73-123.53-75.12Z"/>
    <path class="st0" d="M913.14,343.72v-.83c0-10.43,15.44-12.94,8.35-22.95l-45.07-63.44-24.62,22.95v31.72c0,17.53,17.95,20.87,17.95,31.3v1.67c0,4.17-4.17,7.09-9.6,7.09h-76.79c-5.84,0-9.6-2.92-9.6-7.09v-1.67c0-10.43,16.28-13.77,16.28-31.3V105.84c0-18.78-18.78-22.95-18.78-31.72v-1.67c0-4.17,2.92-6.26,7.93-8.35l55.51-25.88c10.43-5.01,17.11.42,17.11,7.51v201.58l65.52-56.76c12.52-10.43-10.02-20.87-10.02-30.88v-1.67c0-4.59,3.34-7.09,8.76-7.09h59.68c5.01,0,8.35,2.5,8.35,6.68v1.67c0,10.43-20.45,17.11-35.89,30.88l-33.81,31.3,70.53,98.49c6.68,9.6,22.54,12.94,22.54,22.95v1.25c0,4.59-3.34,7.09-8.76,7.09h-77.21c-5.01,0-8.35-2.92-8.35-7.51Z"/>
    <path class="st0" d="M1142.68,331.62c-9.18,13.77-26.71,23.79-55.09,23.79-45.07,0-78.46-21.28-78.46-63.02-.42-41.73,34.64-63.44,75.54-63.44,18.78,0,34.22,4.59,45.07,12.1l-.42-4.59c-4.59-48.83-11.27-72.2-36.73-72.2-33.8,0-23.79,53.42-55.51,53.42-15.02,0-24.62-9.18-24.62-23.37,0-30.05,36.73-47.58,80.13-47.58,54.25,0,90.56,32.97,96.82,85.56l8.76,77.21c3.34,28.8,22.12,20.87,22.12,32.14,0,9.6-20.03,12.1-40.48,12.1-23.37,0-34.22-4.59-37.14-22.12ZM1105.96,337.04c17.53,0,29.21-16.28,29.63-33.8l-1.67-18.36c-2.09-24.62-15.44-37.14-32.55-37.14-17.95,0-30.47,13.77-30.47,35.06,0,28.8,13.36,54.25,35.06,54.25Z"/>
    <path class="st0" d="M1367.21,331.62c-9.18,13.77-26.71,23.79-55.09,23.79-45.07,0-78.46-21.28-78.46-63.02-.42-41.73,34.64-63.44,75.54-63.44,18.78,0,34.22,4.59,45.07,12.1l-.42-4.59c-4.59-48.83-11.27-72.2-36.73-72.2-33.8,0-23.79,53.42-55.51,53.42-15.02,0-24.62-9.18-24.62-23.37,0-30.05,36.73-47.58,80.13-47.58,54.25,0,90.56,32.97,96.82,85.56l8.76,77.21c3.34,28.8,22.12,20.87,22.12,32.14,0,9.6-20.03,12.1-40.48,12.1-23.37,0-34.22-4.59-37.14-22.12ZM1330.49,337.04c17.53,0,29.21-16.28,29.63-33.8l-1.67-18.36c-2.09-24.62-15.44-37.14-32.55-37.14-17.95,0-30.47,13.77-30.47,35.06,0,28.8,13.36,54.25,35.06,54.25Z"/>
    <path class="st0" d="M1456.11,344.14v-1.67c0-10.43,16.28-13.77,16.28-31.3V105.84c0-18.78-16.28-22.95-16.28-31.72v-1.67c0-4.17,3.34-6.26,8.35-8.35l52.58-25.88c10.85-5.43,17.11.42,17.11,7.51v265.43c0,17.53,17.95,20.87,17.95,31.3v1.67c0,4.17-4.17,7.09-9.6,7.09h-76.79c-5.84,0-9.6-2.92-9.6-7.09Z"/>
    <path class="st0" d="M1709.01,331.62c-9.18,13.77-26.71,23.79-55.09,23.79-45.07,0-78.46-21.28-78.46-63.02-.42-41.73,34.64-63.44,75.54-63.44,18.78,0,34.22,4.59,45.07,12.1l-.42-4.59c-4.59-48.83-11.27-72.2-36.73-72.2-33.8,0-23.79,53.42-55.51,53.42-15.02,0-24.62-9.18-24.62-23.37,0-30.05,36.73-47.58,80.13-47.58,54.25,0,90.56,32.97,96.82,85.56l8.76,77.21c3.34,28.8,22.12,20.87,22.12,32.14,0,9.6-20.03,12.1-40.48,12.1-23.37,0-34.22-4.59-37.14-22.12ZM1672.29,337.04c17.53,0,29.21-16.28,29.63-33.8l-1.67-18.36c-2.09-24.62-15.44-37.14-32.55-37.14-17.95,0-30.47,13.77-30.47,35.06,0,28.8,13.36,54.25,35.06,54.25Z"/>
  </g>
</svg>